# xmcd
#
# Track frame offsets: 
#        150
#        18987
#        36536
#        57921
#        79544
#        112783
#        132624
#        155156
#        175608
#        191811
#        215992
#        241282
#
# Disc length: 3414 seconds
#
# Revision: 0
# Processed by: cddbd v1.4PL0 Copyright (c) Steve Scherf et al.
# Submitted via: ExactAudioCopy v0.90a11
#
DISCID=a90d540c
DTITLE=Lightnin' Boy Malcolm - High Water
DYEAR=1900
DGENRE=
TTITLE0=Done Gone Wrong
TTITLE1=Fred's Big Road
TTITLE2=Out on the Edge
TTITLE3=Please Take Me Home
TTITLE4=Comin' On
TTITLE5=White Lightnin'
TTITLE6=Country Women
TTITLE7=High Water
TTITLE8=Kokomo Blues
TTITLE9=Smokestack Lightnin'
TTITLE10=Boogie in the Sticks
TTITLE11=Alfred Street Waltz
EXTD=
EXTT0=
EXTT1=
EXTT2=
EXTT3=
EXTT4=
EXTT5=
EXTT6=
EXTT7=
EXTT8=
EXTT9=
EXTT10=
EXTT11=
PLAYORDER=
